<svg xmlns="http://www.w3.org/2000/svg" viewBox="0 0 100 100" width="100" height="100">
  <defs>
    <linearGradient id="leafGradient" x1="0%" y1="0%" x2="100%" y2="100%">
      <stop offset="0%" style="stop-color:#2E7D32;stop-opacity:1" />
      <stop offset="100%" style="stop-color:#1B5E20;stop-opacity:1" />
    </linearGradient>
    <linearGradient id="seedGradient" x1="0%" y1="0%" x2="100%" y2="100%">
      <stop offset="0%" style="stop-color:#4CAF50;stop-opacity:1" />
      <stop offset="100%" style="stop-color:#2E7D32;stop-opacity:1" />
    </linearGradient>
  </defs>
  
  <!-- Main leaf shape -->
  <path d="M50 10 C65 15, 80 30, 85 50 C80 70, 65 85, 50 90 C35 85, 20 70, 15 50 C20 30, 35 15, 50 10 Z" 
        fill="url(#leafGradient)" 
        stroke="#000000" 
        stroke-width="1"/>
  
  <!-- Leaf vein -->
  <path d="M50 15 L50 85" 
        stroke="#1B5E20" 
        stroke-width="2" 
        fill="none"/>
  
  <!-- Side veins -->
  <path d="M50 25 C40 30, 35 35, 30 40" 
        stroke="#1B5E20" 
        stroke-width="1" 
        fill="none"/>
  <path d="M50 25 C60 30, 65 35, 70 40" 
        stroke="#1B5E20" 
        stroke-width="1" 
        fill="none"/>
  <path d="M50 40 C40 45, 35 50, 30 55" 
        stroke="#1B5E20" 
        stroke-width="1" 
        fill="none"/>
  <path d="M50 40 C60 45, 65 50, 70 55" 
        stroke="#1B5E20" 
        stroke-width="1" 
        fill="none"/>
  <path d="M50 55 C40 60, 35 65, 30 70" 
        stroke="#1B5E20" 
        stroke-width="1" 
        fill="none"/>
  <path d="M50 55 C60 60, 65 65, 70 70" 
        stroke="#1B5E20" 
        stroke-width="1" 
        fill="none"/>
  
  <!-- Small seed/grain elements -->
  <circle cx="42" cy="35" r="3" fill="url(#seedGradient)" stroke="#000000" stroke-width="0.5"/>
  <circle cx="58" cy="45" r="3" fill="url(#seedGradient)" stroke="#000000" stroke-width="0.5"/>
  <circle cx="45" cy="60" r="3" fill="url(#seedGradient)" stroke="#000000" stroke-width="0.5"/>
  
  <!-- AI/Tech circuit pattern -->
  <path d="M20 20 L25 20 L25 25 L30 25" 
        stroke="#4CAF50" 
        stroke-width="1.5" 
        fill="none" 
        opacity="0.7"/>
  <circle cx="30" cy="25" r="1.5" fill="#4CAF50"/>
  
  <path d="M80 75 L75 75 L75 70 L70 70" 
        stroke="#4CAF50" 
        stroke-width="1.5" 
        fill="none" 
        opacity="0.7"/>
  <circle cx="70" cy="70" r="1.5" fill="#4CAF50"/>
</svg>
