<svg xmlns="http://www.w3.org/2000/svg" viewBox="0 0 64 64" width="64" height="64">
  <defs>
    <linearGradient id="gLeaf" x1="0%" y1="0%" x2="100%" y2="100%">
      <stop offset="0%" stop-color="#2E7D32" />
      <stop offset="100%" stop-color="#0f3312" />
    </linearGradient>
    <linearGradient id="gGlow" x1="0%" y1="0%" x2="0%" y2="100%">
      <stop offset="0%" stop-color="#4CAF50" stop-opacity="1" />
      <stop offset="100%" stop-color="#1B5E20" stop-opacity="0.4" />
    </linearGradient>
    <filter id="shadow" x="-20%" y="-20%" width="140%" height="140%">
      <feDropShadow dx="0" dy="2" stdDeviation="2" flood-color="#000" flood-opacity="0.45" />
    </filter>
  </defs>

  <!-- Dark circular backdrop for contrast in browser tabs -->
  <circle cx="32" cy="32" r="30" fill="#000" />
  <circle cx="32" cy="32" r="29" fill="url(#gGlow)" opacity="0.25" />

  <!-- Stylised leaf (agri) -->
  <path d="M32 10 C43 13, 54 24, 56 33 C54 45, 44 54, 32 58 C20 54, 10 45, 8 33 C10 24, 21 13, 32 10 Z" 
        fill="url(#gLeaf)" stroke="#0a1a0b" stroke-width="1.5" filter="url(#shadow)" />

  <!-- Midrib -->
  <path d="M32 15 L32 53" stroke="#1B5E20" stroke-width="2" stroke-linecap="round" />

  <!-- Veins -->
  <path d="M32 22 C26 24 23 27 20 30" stroke="#245c27" stroke-width="1.2" fill="none" />
  <path d="M32 22 C38 24 41 27 44 30" stroke="#245c27" stroke-width="1.2" fill="none" />
  <path d="M32 31 C26 33 23 36 20 39" stroke="#245c27" stroke-width="1.1" fill="none" />
  <path d="M32 31 C38 33 41 36 44 39" stroke="#245c27" stroke-width="1.1" fill="none" />
  <path d="M32 40 C26 42 23 45 20 48" stroke="#245c27" stroke-width="1" fill="none" />
  <path d="M32 40 C38 42 41 45 44 48" stroke="#245c27" stroke-width="1" fill="none" />

  <!-- AI circuit nodes (tech) -->
  <circle cx="26" cy="26" r="2.2" fill="#4CAF50" stroke="#082509" stroke-width="0.6" />
  <circle cx="39" cy="34" r="2.2" fill="#4CAF50" stroke="#082509" stroke-width="0.6" />
  <circle cx="29" cy="44" r="2.2" fill="#4CAF50" stroke="#082509" stroke-width="0.6" />
  <path d="M26 26 L32 31 L39 34 L29 44" stroke="#45d25d" stroke-width="1" fill="none" stroke-linecap="round" stroke-linejoin="round" opacity="0.85" />

  <!-- Monogram C (CropSense) -->
  <path d="M32 23 C27 23 24 28 24 33 C24 38 27 43 32 43" fill="none" stroke="#e5ffe9" stroke-width="3.2" stroke-linecap="round" />
  <!-- Small AI square -->
  <rect x="34.5" y="30.5" width="5" height="5" rx="1" ry="1" fill="#0f3312" stroke="#4CAF50" stroke-width="1" />
  <circle cx="37" cy="33" r="1.2" fill="#4CAF50" />

  <!-- Focus ring -->
  <circle cx="32" cy="32" r="30" fill="none" stroke="#0d1e0e" stroke-width="2" opacity="0.55" />
</svg>
